<svg width="28" height="36" xmlns="http://www.w3.org/2000/svg"><g fill-rule="nonzero" fill="none"><path d="M19.718 0H1.249C.735 0 .32.421.32 1.238v34.12c0 .22.416.642.93.642h25.502c.514 0 .93-.421.93-.643V8.343c0-.447-.058-.591-.163-.697L20.114.165A.56.56 0 0019.718 0z" fill="#F7F7F7"/><path fill="#E5E5E5" d="M20.045.097v7.617h7.54z"/><path d="M26.75 36H1.25a.936.936 0 01-.932-.94V25.07h27.364v9.988c0 .52-.417.941-.931.941z" fill="#EC6630"/><g fill="#FFF"><path d="M7.29 27.594v6.477H6.245v-2.917H3.47v2.917H2.41v-6.477H3.47v2.839h2.775v-2.839H7.29zM13.432 27.594v.72h-1.914v5.757h-1.052v-5.756H8.55v-.721zM19.54 27.594H20.6v6.477H19.54v-4.456l-1.436 3.603h-.922l-1.445-3.603v4.456h-1.061v-6.477h1.061l1.906 4.43zM23.272 27.594v5.678h2.95v.8H22.21v-6.478z"/></g><g fill="#EC6630"><path d="M10.95 10.474a.631.631 0 00-.9 0l-3.818 3.857a.647.647 0 000 .91l3.818 3.856a.631.631 0 00.9 0 .647.647 0 000-.909l-3.368-3.402 3.368-3.403a.647.647 0 000-.909zM22.404 14.331l-3.818-3.857a.631.631 0 00-.9 0 .647.647 0 000 .91l3.369 3.402-3.369 3.402a.647.647 0 000 .91.631.631 0 00.9 0l3.818-3.858a.647.647 0 000-.909z"/></g></g></svg>