<svg width="19" height="17" xmlns="http://www.w3.org/2000/svg"><path d="M9.5 8.189v8.28a.53.53 0 01-.528.531.53.53 0 01-.528-.531v-8.28l-2.265 2.28a.525.525 0 01-.747 0 .534.534 0 010-.75L8.6 6.53a.525.525 0 01.746 0l3.167 3.187a.534.534 0 010 .751.525.525 0 01-.746 0L9.5 8.19zm3.952-5.002h.798c2.623 0 4.75 2.141 4.75 4.782 0 2.64-2.127 4.781-4.75 4.781a.53.53 0 01-.528-.531.53.53 0 01.528-.531c2.04 0 3.694-1.665 3.694-3.72 0-2.053-1.654-3.718-3.694-3.718h-.557c.02.174.03.352.03.531a.53.53 0 01-.529.532.53.53 0 01-.527-.532c0-2.054-1.654-3.718-3.695-3.718h-.528c-2.331 0-4.222 1.902-4.222 4.25v.53a.53.53 0 01-.528.532 2.648 2.648 0 00-2.638 2.656 2.648 2.648 0 002.638 2.656.53.53 0 01.528.532.53.53 0 01-.528.531C1.654 12.75 0 11.085 0 9.031a3.712 3.712 0 013.167-3.68C3.167 2.377 5.53 0 8.444 0h.528a4.754 4.754 0 014.48 3.188z" fill="#000" fill-rule="nonzero"/></svg>