<svg width="28" height="36" xmlns="http://www.w3.org/2000/svg"><g fill-rule="nonzero" fill="none"><path d="M19.718 0H1.249C.735 0 .32.421.32 1.238v34.12c0 .22.416.642.93.642h25.502c.514 0 .93-.421.93-.643V8.343c0-.447-.058-.591-.163-.697L20.114.165A.56.56 0 0019.718 0z" fill="#F7F7F7"/><path fill="#E5E5E5" d="M20.045.097v7.617h7.54z"/><path d="M26.75 36H1.25a.936.936 0 01-.932-.94V25.07h27.364v9.988c0 .52-.417.941-.931.941z" fill="#0096E6"/><g fill="#FFF"><path d="M11.187 33.413a2.37 2.37 0 01-.809.527 2.667 2.667 0 01-.974.175c-.383 0-.735-.07-1.057-.21a2.369 2.369 0 01-.844-.625 2.954 2.954 0 01-.565-1.037 4.635 4.635 0 01-.205-1.441c0-.545.068-1.024.205-1.437.136-.413.325-.757.565-1.032.24-.276.523-.485.849-.63a2.569 2.569 0 011.052-.214c.348 0 .673.058.974.175.301.117.571.293.81.527l-.723.65a1.315 1.315 0 00-1.035-.483c-.215 0-.42.04-.614.123a1.316 1.316 0 00-.522.417c-.153.196-.274.45-.36.76a4.528 4.528 0 00-.14 1.143c.006.44.051.815.135 1.125.084.31.2.564.348.76.148.197.316.34.505.431.188.092.387.137.596.137a1.38 1.38 0 001.088-.483l.721.641zM16.312 32.296a1.777 1.777 0 01-.549 1.261c-.174.167-.388.3-.644.4-.255.1-.544.15-.87.15-.139 0-.282-.009-.43-.023a3.463 3.463 0 01-.448-.074 2.282 2.282 0 01-.431-.146 1.39 1.39 0 01-.353-.224l.183-.756c.081.047.184.093.309.136.124.044.253.085.386.123.134.038.267.069.4.093.134.024.258.035.375.035.354 0 .625-.083.813-.25.189-.168.283-.415.283-.743 0-.2-.066-.37-.2-.51a2.17 2.17 0 00-.5-.382c-.2-.115-.416-.229-.649-.343a3.948 3.948 0 01-.652-.404 2.101 2.101 0 01-.505-.55c-.133-.21-.2-.474-.2-.79a1.709 1.709 0 01.578-1.331c.178-.155.384-.274.619-.357.235-.082.483-.122.744-.122.266 0 .536.025.809.074.272.05.492.13.66.242-.034.076-.074.16-.12.25l-.131.255a6.085 6.085 0 01-.157.286 1.048 1.048 0 01-.117-.07.88.88 0 00-.188-.088 1.323 1.323 0 00-.322-.062 3.012 3.012 0 00-.513.01.892.892 0 00-.331.1 1.146 1.146 0 00-.279.207.942.942 0 00-.191.277.716.716 0 00-.07.294c0 .234.067.423.2.567.134.144.3.27.496.378.197.109.412.214.644.316.232.103.448.228.648.374s.367.33.5.549c.134.22.203.502.203.848zM21.027 32.296c0 .234-.047.461-.143.681-.097.22-.23.414-.405.58-.175.167-.388.3-.644.4-.256.1-.545.15-.87.15-.14 0-.283-.009-.43-.023a3.463 3.463 0 01-.449-.074 2.282 2.282 0 01-.43-.146 1.39 1.39 0 01-.353-.224l.182-.756c.082.047.184.093.309.136.125.044.253.085.387.123.134.038.267.069.4.093.134.024.258.035.374.035.354 0 .625-.083.814-.25.188-.168.282-.415.282-.743 0-.2-.066-.37-.2-.51a2.17 2.17 0 00-.5-.382c-.2-.115-.416-.229-.648-.343a3.948 3.948 0 01-.653-.404 2.101 2.101 0 01-.504-.55c-.134-.21-.2-.474-.2-.79a1.709 1.709 0 01.578-1.331c.177-.155.384-.274.618-.357.235-.082.483-.122.744-.122.267 0 .537.025.81.074.271.05.492.13.66.242-.035.076-.075.16-.121.25l-.13.255a6.085 6.085 0 01-.157.286 1.048 1.048 0 01-.118-.07.88.88 0 00-.187-.088 1.323 1.323 0 00-.322-.062 3.012 3.012 0 00-.514.01.892.892 0 00-.33.1 1.146 1.146 0 00-.28.207.942.942 0 00-.19.277.716.716 0 00-.07.294c0 .234.066.423.2.567.133.144.299.27.495.378.197.109.412.214.644.316.233.103.448.228.649.374.2.146.366.33.5.549.134.22.202.502.202.848z"/></g><g fill="#0096E6"><path d="M8.59 12.214V9.643A.64.64 0 019.228 9a.64.64 0 00.637-.643.64.64 0 00-.637-.643c-1.052 0-1.909.866-1.909 1.929v2.571c0 .71-.57 1.286-1.273 1.286a.64.64 0 00-.636.643.64.64 0 00.636.643 1.28 1.28 0 011.273 1.285v2.572c0 1.063.857 1.928 1.91 1.928a.64.64 0 00.636-.642.64.64 0 00-.637-.643.64.64 0 01-.636-.643V16.07c0-.771-.345-1.456-.88-1.928.535-.472.88-1.157.88-1.929zM21.318 13.5a1.28 1.28 0 01-1.273-1.286V9.643a1.921 1.921 0 00-1.909-1.929.64.64 0 00-.636.643.64.64 0 00.636.643.64.64 0 01.637.643v2.571c0 .772.345 1.457.88 1.929a2.566 2.566 0 00-.88 1.928v2.572a.64.64 0 01-.637.643.64.64 0 00-.636.643.64.64 0 00.636.642c1.053 0 1.91-.865 1.91-1.928V16.07c0-.709.57-1.285 1.272-1.285a.64.64 0 00.637-.643.64.64 0 00-.637-.643z"/></g></g></svg>